<svg xmlns="http://www.w3.org/2000/svg" width="568.916" height="1079.836" viewBox="0 0 568.916 1079.836">
  <g id="Group_24" data-name="Group 24" transform="translate(-489.78 -0.164)">
    <path id="Path_16" data-name="Path 16" d="M7514.744,20761.164s-98.245,374.152-32.036,497.766,89.475,274.016,40.432,306.266-36.59,152.191-6.734,275.8c304.5-8.066,474.291,0,474.291,0l-1.336-1079.836Z" transform="translate(-6970 -20761)" fill="#29aabf"/>
    <path id="Path_17" data-name="Path 17" d="M7514.744,20761.164s-105.472,297.211-39.262,420.824,103.191,319.156,54.148,351.406-43.08,183.992-13.224,307.605c304.5-8.066,474.291,0,474.291,0l-1.336-1079.836Z" transform="translate(-6958 -20761)" fill="#1c8394"/>
    <path id="Path_15" data-name="Path 15" d="M7514.743,20761.164s-132.882,352.488-66.673,476.1,93.182,306.34,44.139,338.586-5.66,141.535,24.2,265.148c304.5-8.066,474.291,0,474.291,0l-1.336-1079.836Z" transform="translate(-6932 -20761)" fill="#177180"/>
  </g>
</svg>
