<svg xmlns="http://www.w3.org/2000/svg" width="680.08" height="753.989" viewBox="0 0 680.08 753.989">
  <g id="heroproject" transform="translate(-502.42 -1937)">
    <g id="item_4" transform="translate(581 1937)">
      <rect id="Rectangle_337" data-name="Rectangle 337" width="426.874" height="549.967" fill="#e6e6e6"/>
      <rect id="Rectangle_338" data-name="Rectangle 338" width="403.158" height="137.774" transform="translate(11.858 70.581)" fill="#fff"/>
      <rect id="Rectangle_339" data-name="Rectangle 339" width="403.158" height="137.774" transform="translate(11.858 232.07)" fill="#fff"/>
      <rect id="Rectangle_340" data-name="Rectangle 340" width="403.158" height="137.774" transform="translate(11.858 393.559)" fill="#fff"/>
      <circle id="Ellipse_215" data-name="Ellipse 215" cx="11.293" cy="11.293" r="11.293" transform="translate(392.995 10.164)" fill="#fff"/>
      <circle id="Ellipse_216" data-name="Ellipse 216" cx="11.293" cy="11.293" r="11.293" transform="translate(37.549 289.664)" fill="#e6e6e6"/>
      <rect id="Rectangle_341" data-name="Rectangle 341" width="106.154" height="18.069" transform="translate(81.592 291.923)" fill="#e6e6e6"/>
      <circle id="Ellipse_217" data-name="Ellipse 217" cx="11.293" cy="11.293" r="11.293" transform="translate(238.281 290.229)" fill="#e6e6e6"/>
      <rect id="Rectangle_342" data-name="Rectangle 342" width="106.154" height="18.069" transform="translate(282.324 292.487)" fill="#e6e6e6"/>
      <path id="Path_788" data-name="Path 788" d="M410.168,17.173l-1.6-1.6-4.283,4.284L400,15.576l-1.6,1.6,4.284,4.284-4.284,4.283,1.6,1.6,4.284-4.284,4.283,4.284,1.6-1.6-4.283-4.283Z" fill="#e6e6e6"/>
      <circle id="Ellipse_218" data-name="Ellipse 218" cx="11.293" cy="11.293" r="11.293" transform="translate(37.549 128.175)" fill="#e6e6e6"/>
      <rect id="Rectangle_343" data-name="Rectangle 343" width="286.841" height="18.069" transform="translate(102.484 129.304)" fill="#e6e6e6"/>
      <rect id="Rectangle_344" data-name="Rectangle 344" width="257.479" height="18.069" transform="translate(84.979 129.304)" fill="#783d3d"/>
      <circle id="Ellipse_219" data-name="Ellipse 219" cx="11.293" cy="11.293" r="11.293" transform="translate(37.549 451.153)" fill="#e6e6e6"/>
      <rect id="Rectangle_345" data-name="Rectangle 345" width="286.841" height="18.069" transform="translate(102.484 452.283)" fill="#e6e6e6"/>
      <rect id="Rectangle_346" data-name="Rectangle 346" width="161.207" height="18.069" transform="translate(84.979 452.283)" fill="#783d3d"/>
      <rect id="Rectangle_347" data-name="Rectangle 347" width="33.597" height="18.069" transform="translate(81.592 291.923)" fill="#783d3d"/>
      <rect id="Rectangle_348" data-name="Rectangle 348" width="66.628" height="18.069" transform="translate(282.324 292.487)" fill="#783d3d"/>
    </g>
    <g id="item" transform="translate(790 -27)">
      <path id="Path_744" data-name="Path 744" d="M468.75,701.1s2.89.07,3.08-2.29Z" transform="translate(-352.5 1944.779)" opacity="0.1"/>
      <path id="Path_745" data-name="Path 745" d="M499.54,629.7s-5,.32-3.08,1.31S499.54,629.7,499.54,629.7Z" transform="translate(-352.5 1944.779)" opacity="0.1"/>
      <path id="Path_746" data-name="Path 746" d="M490.31,679.22c1-.06,10.87-3.21,12.84-.39Z" transform="translate(-352.5 1944.779)" opacity="0.1"/>
      <path id="Path_747" data-name="Path 747" d="M499.22,681.06s1.7-1.51,3.4-.72S499.22,681.06,499.22,681.06Z" transform="translate(-352.5 1944.779)" opacity="0.1"/>
      <path id="Path_748" data-name="Path 748" d="M477.47,697.3a2.92,2.92,0,0,0,2.22,2.3Z" transform="translate(-352.5 1944.779)" opacity="0.1"/>
      <path id="Path_749" data-name="Path 749" d="M508.91,693.11s-.65,4.32-3.27,5.77Z" transform="translate(-352.5 1944.779)" opacity="0.1"/>
      <path id="Path_750" data-name="Path 750" d="M625,708.78c66,0,119.5,10.75,119.5,24s-53.5,24-119.5,24-119.5-10.74-119.5-24" transform="translate(-352.5 1944.779)" fill="none" stroke="#444053" stroke-miterlimit="10" stroke-width="1"/>
      <rect id="Rectangle_319" data-name="Rectangle 319" width="17.09" height="127.07" transform="matrix(0.986, 0.167, -0.167, 0.986, 231.094, 2156.102)" fill="#444053"/>
      <path id="Path_751" data-name="Path 751" d="M550.34,598.75l3.74,26.7,3.2-27.76Z" transform="translate(-282.5 2063)" fill="#d0d2d5"/>
      <path id="Path_752" data-name="Path 752" d="M430.2,583.8v16.56l3.74,14.41h2.67l3.21-15.48,1.6-18.69Z" transform="translate(-282.5 2063)" fill="#3f3d56"/>
      <path id="Path_753" data-name="Path 753" d="M546.12,335.75,520.49,498.06s-37.9,173-23.49,207.17h18.16l54.46-332.1Z" transform="translate(-352.5 1944.779)" fill="#d0d2d5"/>
      <path id="Path_754" data-name="Path 754" d="M611.12,315.59l19.65,163.14s14.31,207.83-1.36,241.44H613.93L586.27,352.08Z" transform="translate(-352.5 1944.779)" fill="#d0d2d5"/>
      <path id="Path_755" data-name="Path 755" d="M543.73,276.45a21,21,0,0,1,20.71-15c15.81.4,40.25,3.28,53,16.34,19.76,20.29-13.35,88.63-13.35,88.63s-31,57.13-59.26-15.48C544.79,351,533.07,312.12,543.73,276.45Z" transform="translate(-352.5 1944.779)" fill="#444053"/>
      <path id="Path_756" data-name="Path 756" d="M543.73,276.45a21,21,0,0,1,20.71-15c15.81.4,40.25,3.28,53,16.34,19.76,20.29-13.35,88.63-13.35,88.63s-31,57.13-59.26-15.48C544.79,351,533.07,312.12,543.73,276.45Z" transform="translate(-352.5 1944.779)" opacity="0.1"/>
      <path id="Path_757" data-name="Path 757" d="M554.6,290.33a15,15,0,0,1,14.75-10.66c11.25.29,28.65,2.34,37.7,11.64,14.07,14.44-9.5,63.1-9.5,63.1s-22,40.67-42.2-11C555.35,343.38,547,315.73,554.6,290.33Z" transform="translate(-352.5 1944.779)" fill="#444053"/>
      <path id="Path_758" data-name="Path 758" d="M636.66,690.31a10.831,10.831,0,0,1,3.74,2.48c-1.77-2-6.83-3-9.31-3.93-3.07-1.14-6.42-2.31-9-4.34a107.878,107.878,0,0,1,14.57,5.79Z" transform="translate(-352.5 1944.779)" opacity="0.1"/>
      <path id="Path_759" data-name="Path 759" d="M628.8,707.36c2.59-1.26,5.59-1.29,8.48-1.27a28.052,28.052,0,0,1,5.26.4,41.532,41.532,0,0,1,7.69,2.89,48.819,48.819,0,0,0,19.38,3.8" transform="translate(-352.5 1944.779)" opacity="0.1"/>
    </g>
    <g id="item_2" transform="translate(119 498)">
      <circle id="Ellipse_200" data-name="Ellipse 200" cx="79" cy="79" r="79" transform="translate(434.402 1985)" fill="#2f2e41"/>
      <rect id="Rectangle_334" data-name="Rectangle 334" width="24" height="43" transform="translate(477.402 2126)" fill="#2f2e41"/>
      <rect id="Rectangle_335" data-name="Rectangle 335" width="24" height="43" transform="translate(525.402 2126)" fill="#2f2e41"/>
      <ellipse id="Ellipse_201" data-name="Ellipse 201" cx="20" cy="7.5" rx="20" ry="7.5" transform="translate(477.402 2162)" fill="#2f2e41"/>
      <ellipse id="Ellipse_202" data-name="Ellipse 202" cx="20" cy="7.5" rx="20" ry="7.5" transform="translate(525.402 2161)" fill="#2f2e41"/>
      <circle id="Ellipse_203" data-name="Ellipse 203" cx="27" cy="27" r="27" transform="translate(488.402 2017)" fill="#fff"/>
      <circle id="Ellipse_204" data-name="Ellipse 204" cx="9" cy="9" r="9" transform="translate(506.402 2035)" fill="#3f3d56"/>
      <ellipse id="Ellipse_205" data-name="Ellipse 205" cx="39.5" cy="12.4" rx="39.5" ry="12.4" transform="matrix(0.357, -0.934, 0.934, 0.357, 560.735, 2036.814)" fill="#2f2e41"/>
      <ellipse id="Ellipse_206" data-name="Ellipse 206" cx="12.4" cy="39.5" rx="12.4" ry="39.5" transform="translate(383.42 2021.621) rotate(-64.626)" fill="#2f2e41"/>
      <path id="Path_770" data-name="Path 770" d="M213.4,411.936c0,7.732,19.909,23,42,23s42.8-21.768,42.8-29.5-20.713,1.5-42.8,1.5S213.4,404.2,213.4,411.936Z" transform="translate(261.201 1680.564)" fill="#fff"/>
    </g>
    <g id="item_3" transform="translate(369 -28)">
      <ellipse id="Ellipse_207" data-name="Ellipse 207" cx="32.344" cy="4.922" rx="32.344" ry="4.922" transform="translate(489.853 2624.969)" opacity="0.1"/>
      <ellipse id="Ellipse_208" data-name="Ellipse 208" cx="32.344" cy="4.922" rx="32.344" ry="4.922" transform="translate(491.853 2621.969)" fill="#2f2e41"/>
      <ellipse id="Ellipse_209" data-name="Ellipse 209" cx="9.844" cy="18.281" rx="9.844" ry="18.281" transform="translate(492.116 2676.506) rotate(-77.705)" opacity="0.1"/>
      <ellipse id="Ellipse_210" data-name="Ellipse 210" cx="9.844" cy="18.281" rx="9.844" ry="18.281" transform="translate(494.116 2673.506) rotate(-77.705)" fill="#2f2e41"/>
      <path id="Path_771" data-name="Path 771" d="M429.5,729.489q-14.238,0-28.41-12.278l1.82-2.711c17.893,15.538,35.287,15.538,53.18,0l1.82,2.712Q443.771,729.488,429.5,729.489Z" transform="translate(24 1989.5)" opacity="0.1"/>
      <path id="Path_772" data-name="Path 772" d="M429.5,725.489c-9.492,0-18.984-3.6-28.41-10.8l1.82-2.385c17.893,13.664,35.287,13.664,53.18,0l1.82,2.385C448.484,721.89,438.992,725.489,429.5,725.489Z" transform="translate(24 1989.5)"/>
    </g>
  </g>
</svg>
