<svg xmlns="http://www.w3.org/2000/svg" width="154.75" height="154.75" viewBox="0 0 154.75 154.75">
  <g id="secured" transform="translate(-1788.96 -1029)">
    <circle id="Ellipse_243" data-name="Ellipse 243" cx="77.375" cy="77.375" r="77.375" transform="translate(1788.96 1029)" fill="#33b322"/>
    <path id="Path_1156" data-name="Path 1156" d="M942.89,285.223H878.779a4.426,4.426,0,0,1-4.422-4.421V242.114a4.426,4.426,0,0,1,4.422-4.421H942.89a4.426,4.426,0,0,1,4.421,4.421V280.8a4.426,4.426,0,0,1-4.421,4.421Zm-64.111-43.109V280.8h64.114l0-38.687Z" transform="translate(955.5 854.865)" fill="#fff"/>
    <path id="Path_1157" data-name="Path 1157" d="M930.731,242.114H890.938V224.428c0-12.81,8.368-22.107,19.9-22.107s19.9,9.3,19.9,22.107Zm-35.372-4.421h30.95V224.428c0-10.413-6.363-17.686-15.475-17.686s-15.475,7.273-15.475,17.686Z" transform="translate(955.5 854.865)" fill="#fff"/>
    <circle id="Ellipse_244" data-name="Ellipse 244" cx="4.421" cy="4.421" r="4.421" transform="translate(1861.914 1110.797)" fill="#fff"/>
  </g>
</svg>
