<svg xmlns="http://www.w3.org/2000/svg" width="652.746" height="530.994" viewBox="0 0 652.746 530.994">
  <g id="skater" transform="translate(-92.488 0)">
    <path id="Path_180" data-name="Path 180" d="M832.067,623.228s-26.378,9.894-38.806,32.943-6.2,50.524-6.2,50.524,26.378-9.894,38.806-32.943S832.067,623.228,832.067,623.228Z" transform="translate(-158 -185.887)" fill="#3f3d56"/>
    <g id="mongodb" transform="translate(705.678 404.444) rotate(57)">
      <path id="Path_41" data-name="Path 41" d="M82.1,42.812a77.861,77.861,0,0,1,2.331,14.626A88.26,88.26,0,0,1,83.671,76c-.026.169-.081.327-.122.491a4.369,4.369,0,0,0-.9.012c-2.47.535-4.938,1.09-7.406,1.641-2.551.57-5.106,1.117-7.653,1.726-.9.215-2.019-.042-2.383,1.679-.01.047-.114.055-.174.082l.123-10.283q-.063-12.406-.125-24.811l1.189-.281c1.944-.439,3.888-.884,5.834-1.311,2.322-.508,4.646-1,6.969-1.5,1.025-.22,2.051-.422,3.078-.632Z" transform="translate(-7.337 0.918)" fill="#439934" fill-rule="evenodd"/>
      <path id="Path_42" data-name="Path 42" d="M55.245,111.645c-1.254-1.487-2.552-2.908-3.754-4.471a71.055,71.055,0,0,1-13.53-30.248,66.115,66.115,0,0,1-1.207-10.018c-.1-2.376-.236-4.773-.114-7.136a113.072,113.072,0,0,1,2.32-18.566l.073-.141a3.134,3.134,0,0,1,.383.718q1.958,7.949,3.89,15.91,6.075,25.014,12.152,50.028a4.319,4.319,0,0,0,.433.886Z" transform="translate(0 0.878)" fill="#45a538" fill-rule="evenodd"/>
      <path id="Path_43" data-name="Path 43" d="M81.837,43.7c-1.027.211-2.054.412-3.079.63-2.323.5-4.647.99-6.969,1.5-1.946.427-3.89.872-5.834,1.311l-1.189.281-.009-1.069c-.039-.879-.107-1.757-.114-2.635-.051-5.6-.083-11.209-.134-16.813q-.047-5.262-.13-10.522c-.032-2.179-.066-4.359-.137-6.535-.039-1.169-.175-2.333-.231-3.5-.031-.672.012-1.349.022-2.025.606,1.62,1.2,3.251,1.822,4.859a30.727,30.727,0,0,0,3.965,6.457A81.224,81.224,0,0,1,81.837,43.7Z" transform="translate(-7.071 0.03)" fill="#46a037" fill-rule="evenodd"/>
      <path id="Path_44" data-name="Path 44" d="M64.85,80.869c.06-.027.165-.035.174-.082.364-1.721,1.481-1.464,2.383-1.679,2.547-.608,5.1-1.156,7.653-1.726,2.468-.551,4.936-1.106,7.406-1.641a4.3,4.3,0,0,1,.9-.012c-.462,2.271-.825,4.592-1.411,6.8-.665,2.505-1.469,4.951-2.323,7.348a55.12,55.12,0,0,1-4.714,9.988c-1.424,2.361-3.011,4.543-4.6,6.7-.879,1.192-1.916,2.163-2.881,3.234l-.25-.235-.9-1.062-.932-2.816A57.486,57.486,0,0,1,64.315,95.62l.017-.574.127-2.482c.042-.847.1-1.693.125-2.542.1-3.051.179-6.1.266-9.152Z" transform="translate(-7.152 1.677)" fill="#409433" fill-rule="evenodd"/>
      <path id="Path_45" data-name="Path 45" d="M59.391,82.08q-.131,4.576-.265,9.153c-.026.849-.082,1.7-.125,2.542l-.568.3c-1.261-5.117-2.522-10.18-3.756-15.257q-3.061-12.6-6.094-25.21-2.468-10.171-4.972-20.325a3.6,3.6,0,0,0-.458-.845l3.633-9.21a6.169,6.169,0,0,1,.368.9q2.521,10.286,5.022,20.582,3.246,13.4,6.476,26.8c.086.357.229.686.364,1.086l.5-.8Q59.453,76.938,59.391,82.08Z" transform="translate(-1.693 0.466)" fill="#4faa41" fill-rule="evenodd"/>
      <path id="Path_46" data-name="Path 46" d="M42.311,32.227a3.621,3.621,0,0,1,.458.845q2.5,10.156,4.972,20.325Q50.8,66,53.835,78.608c1.233,5.075,2.495,10.14,3.756,15.257l.568-.3-.127,2.482-.115.572c-.2,2.717-.364,5.441-.6,8.152-.121,1.359-.378,2.693-.573,4.038a4.357,4.357,0,0,1-.433-.886Q50.222,82.917,44.156,57.9q-1.933-7.96-3.89-15.91a3.106,3.106,0,0,0-.383-.718q1.213-4.522,2.428-9.044Z" transform="translate(-0.849 0.674)" fill="#4aa73c" fill-rule="evenodd"/>
      <path id="Path_47" data-name="Path 47" d="M60.777,71.981l-.5.8c-.136-.4-.278-.73-.364-1.086q-3.242-13.4-6.476-26.8-2.5-10.3-5.022-20.582a5.963,5.963,0,0,0-.368-.9l4.493-8.149a3.507,3.507,0,0,1,.417.787Q54.83,23.6,56.671,31.166c1.148,4.71,2.279,9.428,3.44,14.132a2.753,2.753,0,0,0,.53.8l.009,1.069Q60.715,59.573,60.777,71.981Z" transform="translate(-2.955 0.282)" fill="#57ae47" fill-rule="evenodd"/>
      <path id="Path_48" data-name="Path 48" d="M62.205,46.382a2.753,2.753,0,0,1-.53-.8c-1.161-4.7-2.292-9.421-3.44-14.132q-1.843-7.566-3.712-15.119a3.507,3.507,0,0,0-.417-.787c1.461-1.972,2.877-4.016,4.4-5.9A9.5,9.5,0,0,0,60.99,3.538a4.248,4.248,0,0,1,.108-.526l.385,1.336c-.01.676-.053,1.352-.022,2.025.056,1.169.192,2.333.231,3.5.071,2.176.105,4.356.137,6.535q.077,5.261.13,10.522c.05,5.6.082,11.209.134,16.813C62.1,44.626,62.165,45.5,62.205,46.382Z" transform="translate(-4.518 0)" fill="#60b24f" fill-rule="evenodd"/>
      <path id="Path_49" data-name="Path 49" d="M62.374,107.36c.2-1.345.452-2.68.573-4.038.241-2.71.407-5.435.6-8.152l.049-.01.049.011a57.486,57.486,0,0,0,1.034,10.065,3.222,3.222,0,0,0-.384.717c-.539,2.1-1.048,4.211-1.59,6.308a3.219,3.219,0,0,1-.426.761l-.554-2.625.646-3.037Z" transform="translate(-6.484 2.125)" fill="#a9aa88" fill-rule="evenodd"/>
      <path id="Path_50" data-name="Path 50" d="M62.476,112.8a3.193,3.193,0,0,0,.426-.761c.542-2.1,1.051-4.21,1.59-6.308a3.191,3.191,0,0,1,.384-.717l.931,2.818a5.383,5.383,0,0,0-.54,1.085l-1.784,7.222a2.558,2.558,0,0,1-.492.739l-.516-4.077Z" transform="translate(-6.677 2.352)" fill="#b6b598" fill-rule="evenodd"/>
      <path id="Path_51" data-name="Path 51" d="M63.171,116.809a2.53,2.53,0,0,0,.492-.739l1.784-7.222a5.372,5.372,0,0,1,.54-1.085l.9,1.061a2.7,2.7,0,0,0-.532,2.145l-.274,1.236a2.594,2.594,0,0,0-.367.638c-.623,2.458-1.217,4.93-1.844,7.389a3.527,3.527,0,0,1-.456.831q-.121-2.129-.246-4.254Z" transform="translate(-6.856 2.416)" fill="#c2c1a7" fill-rule="evenodd"/>
      <path id="Path_52" data-name="Path 52" d="M63.5,120.963a3.624,3.624,0,0,0,.456-.831c.627-2.457,1.221-4.929,1.844-7.389a2.589,2.589,0,0,1,.367-.638l-.378,5.673a1.854,1.854,0,0,0-.3.488c-.427,1.651-.829,3.315-1.257,4.966a7.3,7.3,0,0,1-.39.96c-.117-.212-.327-.416-.337-.637-.038-.86-.012-1.727-.01-2.591Z" transform="translate(-6.938 2.516)" fill="#cecdb7" fill-rule="evenodd"/>
      <path id="Path_53" data-name="Path 53" d="M63.969,124.064a7.417,7.417,0,0,0,.39-.96c.429-1.65.83-3.314,1.257-4.966a1.891,1.891,0,0,1,.3-.488l.009,3.724-.9,3.2-1.047-.506Z" transform="translate(-7.062 2.644)" fill="#dbdac7" fill-rule="evenodd"/>
      <path id="Path_54" data-name="Path 54" d="M65.38,124.487l.9-3.2.186,3.781Z" transform="translate(-7.426 2.728)" fill="#ebe9dc" fill-rule="evenodd"/>
      <path id="Path_55" data-name="Path 55" d="M67.449,110.946a2.7,2.7,0,0,1,.532-2.145l.25.235Z" transform="translate(-7.949 2.44)" fill="#cecdb7" fill-rule="evenodd"/>
      <path id="Path_56" data-name="Path 56" d="M64.282,95.185l-.049-.011-.049.01.115-.572-.017.573Z" transform="translate(-7.118 2.113)" fill="#4faa41" fill-rule="evenodd"/>
    </g>
    <g id="html" transform="matrix(0.07, -0.998, 0.998, 0.07, -413.719, 1475.365)">
      <path id="Path_136" data-name="Path 136" d="M925.83,337.49l-2.515,28.166-11.3,3.135-11.271-3.135L898.23,337.49Z" transform="translate(82.013 107.84)" fill="#e44d26"/>
      <path id="Path_137" data-name="Path 137" d="M981.86,378.052l9.133-2.531,2.145-24.07H981.86Z" transform="translate(12.182 96.183)" fill="#f16529"/>
      <path id="Path_138" data-name="Path 138" d="M933.135,375.845h4.887V372.39H929.36l.082.927.85,9.521h7.732v-3.455h-4.572Zm.785,8.72h-3.465l.483,5.425,7.069,1.97h.016v-3.605h-.015l-3.848-1.039Z" transform="translate(56.019 78.698)" fill="#ebebeb"/>
      <path id="Path_140" data-name="Path 140" d="M981.79,382.83h4.254l-.4,4.481-3.853,1.04v3.6l7.084-1.964.051-.584.812-9.1.084-.927H981.79v3.455Zm0-7v.008h8.346l.069-.777.165-1.752.082-.927H981.79v3.447Z" transform="translate(12.24 78.707)" fill="#fff"/>
    </g>
    <path id="Path_192" data-name="Path 192" d="M0,0H652.746V1.941H0Z" transform="translate(92.488 527.143)" fill="#2f2e41"/>
    <path id="Path_182" data-name="Path 182" d="M519.872,620.975a95.444,95.444,0,0,1-35.748-14.446l1.182-1.614a93.363,93.363,0,0,0,35,14.106c18.932,3.4,47.261,1.731,74.707-25.527,53.414-53.048,104.393-58.391,104.9-58.438l.187,1.992c-.5.047-50.768,5.317-103.678,57.866-21.613,21.464-43.792,27.4-61.718,27.4A83.5,83.5,0,0,1,519.872,620.975Z" transform="translate(-158 -185.887)" fill="#2f2e41"/>
    <circle id="Ellipse_28" data-name="Ellipse 28" cx="12" cy="12" r="12" transform="translate(503.153 369.113)" fill="#2f2e41"/>
    <circle id="Ellipse_29" data-name="Ellipse 29" cx="12" cy="12" r="12" transform="translate(418.153 425.113)" fill="#2f2e41"/>
    <g id="pwa-logo" transform="translate(172.99 503.606)">
      <path id="Path_178" data-name="Path 178" d="M99.9,24.37,113.266,0h-8.858l-9.14,15.749L88.767,0H81.957L74.979,15.749,70.057,8.572,65.6,18.663l4.522,5.707h8.718L85.15,10.248l6.013,14.123Z" transform="translate(-45.93 -0.121)" fill="#fb8c00"/>
      <path id="Path_179" data-name="Path 179" d="M5.5,15.884h5.442a21.478,21.478,0,0,0,4.4-.407l1.408-3.2L20.69,3.345a7.879,7.879,0,0,0-1.027-.993C17.644.7,15.693-.195,11.8-.195L-3.741,1.187c-5.472,7,.854,23.062.854,23.062H5.5Zm7.2-10.4a2.779,2.779,0,0,1,1.184,2.35,2.907,2.907,0,0,1-1.041,2.353q-1.141.966-4.2.966H5.5V4.608H8.67a6.981,6.981,0,0,1,4.036.878Zm49.2,14.4,2.543-4.729h7.341L68.307,7.983l4.358-8.1C84.756,3.8,85.145,24.25,85.145,24.25h-9.2l-2.132-4.365Z" fill="#616161"/>
    </g>
    <g id="React-icon" transform="translate(75.299 391.09)">
      <path id="Path_38" data-name="Path 38" d="M240.888,107.033c0-4.318-5.408-8.411-13.7-10.949,1.913-8.451,1.063-15.174-2.684-17.327a5.826,5.826,0,0,0-2.976-.744v2.963a3.077,3.077,0,0,1,1.515.345c1.807,1.036,2.591,4.983,1.98,10.059-.146,1.249-.385,2.564-.678,3.907a64.394,64.394,0,0,0-8.437-1.448,64.815,64.815,0,0,0-5.528-6.644c4.332-4.026,8.4-6.232,11.161-6.232V78h0c-3.654,0-8.437,2.6-13.274,7.122-4.837-4.491-9.62-7.069-13.274-7.069v2.963c2.751,0,6.83,2.192,11.161,6.192a62.754,62.754,0,0,0-5.488,6.63,62.051,62.051,0,0,0-8.451,1.462c-.306-1.329-.532-2.618-.691-3.853-.625-5.076.146-9.022,1.94-10.072a2.957,2.957,0,0,1,1.528-.345V78.066h0a5.925,5.925,0,0,0-3,.744c-3.734,2.153-4.571,8.863-2.644,17.287-8.265,2.551-13.646,6.63-13.646,10.936s5.408,8.411,13.7,10.949c-1.913,8.451-1.063,15.174,2.684,17.327a5.841,5.841,0,0,0,2.99.744c3.654,0,8.438-2.6,13.274-7.122,4.837,4.491,9.62,7.069,13.274,7.069a5.925,5.925,0,0,0,3-.744c3.734-2.153,4.571-8.863,2.644-17.287C235.507,115.431,240.888,111.338,240.888,107.033Zm-17.3-8.863c-.492,1.714-1.1,3.481-1.794,5.249-.545-1.063-1.116-2.126-1.741-3.189s-1.262-2.1-1.913-3.109C220.027,97.4,221.847,97.745,223.588,98.17ZM217.5,112.321c-1.036,1.794-2.1,3.495-3.2,5.076-1.98.173-3.986.266-6.006.266s-4.013-.093-5.979-.252q-1.654-2.372-3.216-5.049-1.515-2.611-2.764-5.288c.824-1.781,1.754-3.561,2.751-5.3,1.036-1.794,2.1-3.495,3.2-5.076,1.98-.173,3.986-.266,6.006-.266s4.013.093,5.979.252q1.654,2.372,3.216,5.049,1.515,2.611,2.764,5.288C219.416,108.8,218.5,110.581,217.5,112.321Zm4.292-1.727c.718,1.781,1.329,3.561,1.834,5.288-1.741.425-3.574.784-5.474,1.063.651-1.023,1.3-2.073,1.913-3.149S221.249,111.657,221.794,110.594Zm-13.473,14.178a54.765,54.765,0,0,1-3.694-4.252c1.2.053,2.418.093,3.654.093s2.485-.027,3.694-.093A51.865,51.865,0,0,1,208.321,124.772Zm-9.886-7.826c-1.887-.279-3.707-.624-5.448-1.05.492-1.714,1.1-3.481,1.794-5.249.545,1.063,1.116,2.126,1.741,3.189S197.784,115.935,198.435,116.945Zm9.819-27.651a54.777,54.777,0,0,1,3.694,4.252c-1.2-.053-2.418-.093-3.654-.093s-2.485.027-3.694.093A51.859,51.859,0,0,1,208.254,89.294Zm-9.833,7.826c-.651,1.023-1.3,2.073-1.913,3.149s-1.183,2.126-1.727,3.189c-.718-1.781-1.329-3.561-1.834-5.288C194.688,97.758,196.521,97.4,198.422,97.121ZM186.4,113.756c-4.7-2.006-7.747-4.637-7.747-6.723s3.043-4.73,7.747-6.723c1.143-.492,2.392-.93,3.681-1.342a63.818,63.818,0,0,0,2.99,8.092,62.925,62.925,0,0,0-2.95,8.052C188.8,114.7,187.552,114.248,186.4,113.756Zm7.149,18.988c-1.807-1.036-2.591-4.983-1.98-10.059.146-1.249.385-2.564.678-3.906a64.4,64.4,0,0,0,8.438,1.448,64.811,64.811,0,0,0,5.528,6.644c-4.332,4.026-8.4,6.232-11.161,6.232A3.171,3.171,0,0,1,193.545,132.744Zm31.518-10.125c.625,5.076-.146,9.022-1.94,10.072a2.957,2.957,0,0,1-1.528.345c-2.75,0-6.83-2.192-11.161-6.192a62.76,62.76,0,0,0,5.488-6.63,62.052,62.052,0,0,0,8.451-1.462A37.2,37.2,0,0,1,225.063,122.619Zm5.116-8.863c-1.143.492-2.392.93-3.681,1.342a63.823,63.823,0,0,0-2.99-8.092,62.919,62.919,0,0,0,2.95-8.052c1.315.412,2.565.864,3.734,1.355,4.7,2.006,7.747,4.637,7.747,6.723S234.882,111.763,230.178,113.756Z" transform="translate(0 0)" fill="#61dafb"/>
      <path id="Path_39" data-name="Path 39" d="M320.8,78.4Z" transform="translate(-125.82 -0.347)" fill="#61dafb"/>
      <circle id="Ellipse_27" data-name="Ellipse 27" cx="6.072" cy="6.072" r="6.072" transform="translate(202.208 100.961)" fill="#61dafb"/>
      <path id="Path_40" data-name="Path 40" d="M520.5,78.1Z" transform="translate(-298.985 -0.087)" fill="#61dafb"/>
    </g>
    <g id="js" transform="translate(-1104.123 146.874)">
      <path id="Path_110" data-name="Path 110" d="M585,276.09h72.013V348.1H585Z" transform="translate(1023.013 19.84)" fill="#f7df1e"/>
      <path id="Path_111" data-name="Path 111" d="M654.21,422.971l5.511-3.336c1.064,1.885,2.03,3.481,4.351,3.481,2.225,0,3.626-.87,3.626-4.252v-23.01h6.767v23.1c0,7.008-4.1,10.2-10.1,10.2-5.413,0-8.554-2.8-10.149-6.187m23.927-.725,5.508-3.191c1.45,2.37,3.336,4.1,6.671,4.1,2.8,0,4.592-1.4,4.592-3.336,0-2.32-1.836-3.141-4.926-4.5l-1.691-.725c-4.882-2.077-8.122-4.687-8.122-10.2,0-5.076,3.866-8.942,9.908-8.942,4.3,0,7.388,1.5,9.618,5.413l-5.268,3.385c-1.16-2.08-2.416-2.9-4.351-2.9a2.945,2.945,0,0,0-3.24,2.9c0,2.03,1.256,2.851,4.156,4.1l1.691.725c5.746,2.463,8.992,4.977,8.992,10.634,0,6.091-4.786,9.427-11.219,9.427-6.294,0-10.344-3.01-12.314-6.912" transform="translate(972.741 -66.866)"/>
    </g>
    <path id="Path_183" data-name="Path 183" d="M841.5,714s-17.462-5.413-52.261-10.842L790,692.5c6-60-34-150-34-150a401.561,401.561,0,0,1,21.469,139.025C772.132,672.212,761.821,662.166,742,656c0,0,25.778,22.106,33.159,45.1a997.79,997.79,0,0,0-102.023-8.216L682,672.5l-17,17s-7-51-22-53l11,50s-13-10-16-9l7.4,14.795c-49.819-.517-109.085,1.736-177.766,8.952L476,682l-17,17s-7-51-22-53l11,50s-13-10-16-9l8.643,17.286q-33.667,4-70.143,9.714Z" transform="translate(-158 -185.887)" fill="#3f3d56"/>
    <path id="Path_184" data-name="Path 184" d="M565.648,230.378c-10.9,11.748,17.6,40.26,17.6,40.26s-57.707,9.73-53.128,9.141,2.206-49.132,2.206-49.132S576.548,218.63,565.648,230.378Z" transform="translate(-158 -185.887)" fill="#a0616a"/>
    <path id="Path_185" data-name="Path 185" d="M605.812,356.109l-50.139,25.614-27.23,15.606s-32.1,40.431-38.087,64.392,25.93,68.247,29.544,72.823a54.354,54.354,0,0,1,4.989,7.424c1.247,1.856,12.029-.541,23.8-3.066s-1.562-19.963-1.562-19.963-15.027-38.4-16.147-39.259c-1.046-.807-4.6-7.446-2.043-10.352a25.95,25.95,0,0,0,5.445-8.9,30.091,30.091,0,0,1,4.187-7.941s45.361-36.836,59.528-49.378,51.829-4.658,51.829-4.658-17.782,68.2-22.23,72.806-4.929,8.7-2.915,16.508,28.282.391,28.282.391l9.7-26.456s15.749-34.293,24.3-69.674c4.275-17.691-3.888-28.235-13.121-34.355a41.391,41.391,0,0,0-30.03-5.978l-46.349,8.131,32.147-13.849Z" transform="translate(-158 -185.887)" fill="#2f2e41"/>
    <path id="Path_186" data-name="Path 186" d="M420.878,290.191l-59.854-18.506s-24.179-31.167-12.788-36.667,25.652,26.944,25.652,26.944l41.686,2.7Z" transform="translate(-158 -185.887)" fill="#a0616a"/>
    <path id="Path_187" data-name="Path 187" d="M672.494,257.787l53.212-33.068s15.493-36.276,3.081-38.711S710.8,218.573,710.8,218.573l-39.642,13.171Z" transform="translate(-158 -185.887)" fill="#a0616a"/>
    <path id="Path_188" data-name="Path 188" d="M682.453,220.4l1.014,39.191-89.688,16.025c13.192,28.224,9.841,60.347,43.047,74.426L524.9,404.787c4.987-43.038-15.818-75.456-35.263-115.759-23.685-8.586-51.2-2.291-80.336,10.346l-5.237-40.664,123.878-8.9,20.349,7.779,21.818-9.177C602.179,238.89,648.221,220.776,682.453,220.4Z" transform="translate(-158 -185.887)" fill="#6c63ff"/>
    <path id="Path_189" data-name="Path 189" d="M626.64,486.517c-2.72,2.367-5.252,21.85-5.35,28.92s9.212,8.9,14.3,9.249,4.478,3.456,7.837,6.049,14.4,2.179,28.89-2.712-9.753-20.926-11.864-21.662-11-22.782-11-22.782S629.36,484.15,626.64,486.517Z" transform="translate(-158 -185.887)" fill="#2f2e41"/>
    <path id="Path_190" data-name="Path 190" d="M547.368,531.007c3.231,1.6,10.617,19.806,12.5,26.621s-6.657,10.94-11.489,12.57-3.456,4.478-6.049,7.837-13.374,5.755-28.635,4.7,4.133-22.714,5.988-23.961,4.869-24.825,4.869-24.825S544.137,529.407,547.368,531.007Z" transform="translate(-158 -185.887)" fill="#2f2e41"/>
    <circle id="Ellipse_30" data-name="Ellipse 30" cx="23.996" cy="23.996" r="23.996" transform="translate(365.475 11.433)" fill="#a0616a"/>
    <path id="redux" d="M25.092,24.01a2.589,2.589,0,0,0-.277-5.162h-.092a2.578,2.578,0,0,0-2.489,2.673,2.647,2.647,0,0,0,.737,1.705,16.484,16.484,0,0,1-7.558,7.235A12.462,12.462,0,0,1,7.9,31.891a6.406,6.406,0,0,1-4.7-2.719,6.77,6.77,0,0,1-.369-7.143,10.848,10.848,0,0,1,3.134-3.687c-.184-.6-.461-1.613-.6-2.35C-1.314,20.83-.622,27.375,1.405,30.462c1.521,2.3,4.608,3.733,8.018,3.733a11.335,11.335,0,0,0,2.765-.323,17.685,17.685,0,0,0,12.9-9.862ZM33.2,18.3a18.714,18.714,0,0,0-14.562-6.36H17.9a2.532,2.532,0,0,0-2.258-1.383h-.092a2.582,2.582,0,0,0,.092,5.162h.092A2.6,2.6,0,0,0,18,14.148h.83a17.564,17.564,0,0,1,9.816,3,12.345,12.345,0,0,1,4.885,5.9,6.388,6.388,0,0,1-.092,5.438A6.765,6.765,0,0,1,27.12,32.26a11.787,11.787,0,0,1-4.516-.968c-.507.461-1.429,1.2-2.074,1.659a14.227,14.227,0,0,0,5.945,1.429,10,10,0,0,0,8.94-4.885c1.336-2.673,1.244-7.281-2.212-11.2Zm-23.41,6.5a2.589,2.589,0,0,0,2.581,2.489h.092a2.582,2.582,0,0,0-.092-5.161h-.092a.785.785,0,0,0-.323.046,16.885,16.885,0,0,1-2.4-10.231,12.362,12.362,0,0,1,2.719-7.143,7.993,7.993,0,0,1,5.668-2.581c4.885-.092,6.958,5.991,7.1,8.434.6.138,1.613.461,2.3.691C26.8,3.871,22.189,0,17.765,0,13.617,0,9.793,3,8.272,7.42c-2.12,5.9-.737,11.567,1.843,16.038a2.071,2.071,0,0,0-.323,1.337Z" transform="matrix(0.891, 0.454, -0.454, 0.891, 325.893, 483.921)" fill="#764abc"/>
    <g id="css" transform="matrix(0.407, 0.914, -0.914, 0.407, -98.155, -801.855)">
      <path id="Path_173" data-name="Path 173" d="M218.685,351.087l-16.442-4.611L198.58,304.92h40.259l-3.667,41.55Z" transform="translate(1177.013 -260.16)" fill="#264de4"/>
      <path id="Path_174" data-name="Path 174" d="M313.459,357.456l3.134-35.576H300.14v39.31Z" transform="translate(1095.585 -273.758)" fill="#2965f1"/>
      <path id="Path_175" data-name="Path 175" d="M237.288,357.471l.452,5.039h11.28v-5.039Zm-.908-10.2.458,5.039h12.18V347.27H236.37Zm12.637,23.291H249l-5.614-1.516-.359-4.02h-5.069l.706,7.914,10.324,2.872h.024Z" transform="translate(1146.714 -293.863)" fill="#ebebeb"/>
      <path id="Path_176" data-name="Path 176" d="M311.724,357.471l.91-10.2H300v5.039h7.1l-.458,5.154H300V362.5h6.207l-.595,6.542L300,370.565v5.243l10.332-2.864.075-.852,1.189-13.27.123-1.354Z" transform="translate(1095.698 -293.863)" fill="#fff"/>
    </g>
    <path id="Path_191" data-name="Path 191" d="M519.734,218.909a22.826,22.826,0,0,1-.834-18.593c2.359-5.815,7.592-11.656,18.873-13.4,24.614-3.806,37.713,13.435,37.024,19.074s-3.993,19.271-3.993,19.271,1.476-12.906-4.859-13.362-30.9-2.378-37.122,4.145a14.233,14.233,0,0,0-3.711,13.83Z" transform="translate(-158 -185.887)" fill="#2f2e41"/>
  </g>
</svg>
